<svg width="32" height="33" viewBox="0 0 32 33" fill="none" xmlns="http://www.w3.org/2000/svg">
<g clip-path="url(#clip0_155_133)">
<path d="M29.0563 25.5825C28.5896 26.6694 28.0133 27.7059 27.3363 28.6759C26.431 29.9659 25.6903 30.8585 25.1197 31.3545C24.235 32.1679 23.2863 32.5852 22.271 32.6085C21.5423 32.6085 20.6637 32.4012 19.6403 31.9805C18.6137 31.5619 17.6703 31.3539 16.8077 31.3539C15.903 31.3539 14.933 31.5619 13.895 31.9805C12.8557 32.4012 12.0183 32.6205 11.3783 32.6419C10.405 32.6839 9.43433 32.2552 8.46499 31.3545C7.84699 30.8145 7.07433 29.8905 6.14766 28.5812C5.15366 27.1825 4.33633 25.5612 3.69633 23.7119C3.01099 21.7152 2.66699 19.7812 2.66699 17.9092C2.66699 15.7645 3.13033 13.9152 4.05833 12.3652C4.78833 11.1199 5.75833 10.1385 6.97299 9.4172C8.16465 8.70409 9.52435 8.32034 10.913 8.3052C11.6863 8.3052 12.7003 8.54453 13.961 9.01453C15.2177 9.48586 16.0243 9.7252 16.3783 9.7252C16.6423 9.7252 17.539 9.4452 19.0583 8.88786C20.4957 8.37053 21.7083 8.15653 22.7017 8.2412C25.3943 8.45853 27.417 9.51986 28.7617 11.4319C26.3543 12.8905 25.163 14.9339 25.187 17.5552C25.2083 19.5972 25.949 21.2965 27.405 22.6452C28.065 23.2719 28.8017 23.7559 29.621 24.0992C29.4492 24.5997 29.2609 25.0945 29.0563 25.5825ZM22.8817 1.2852C22.8817 2.8852 22.297 4.37986 21.1317 5.76253C19.725 7.4072 18.0243 8.3572 16.1797 8.2072C16.1549 8.00592 16.1424 7.80332 16.1423 7.60053C16.1423 6.06453 16.811 4.42053 17.999 3.07586C18.5923 2.3952 19.3457 1.8292 20.2603 1.37786C21.1737 0.933198 22.0363 0.687198 22.8483 0.644531C22.8717 0.858531 22.8817 1.07253 22.8817 1.28453V1.2852Z" fill="white"/>
</g>
<defs>
<clipPath id="clip0_155_133">
<rect width="32" height="32" fill="white" transform="translate(0 0.644531)"/>
</clipPath>
</defs>
</svg>
