<svg width="24" height="24" viewBox="0 0 24 24" fill="none" xmlns="http://www.w3.org/2000/svg">
<path d="M7.48145 9.34668H2.98145V4.84668" stroke="#5F6C72" stroke-width="1.5" stroke-linecap="round" stroke-linejoin="round"/>
<path d="M17.8314 6.16885C17.0661 5.40236 16.1571 4.79429 15.1565 4.37941C14.1559 3.96453 13.0834 3.75098 12.0002 3.75098C10.917 3.75098 9.84445 3.96453 8.84387 4.37941C7.84329 4.79429 6.93431 5.40236 6.16895 6.16885L2.98145 9.34698" stroke="#5F6C72" stroke-width="1.5" stroke-linecap="round" stroke-linejoin="round"/>
<path d="M16.5186 14.6533H21.0186V19.1533" stroke="#5F6C72" stroke-width="1.5" stroke-linecap="round" stroke-linejoin="round"/>
<path d="M6.16895 17.8314C6.93431 18.5979 7.84329 19.206 8.84387 19.6209C9.84445 20.0358 10.917 20.2493 12.0002 20.2493C13.0834 20.2493 14.1559 20.0358 15.1565 19.6209C16.1571 19.206 17.0661 18.5979 17.8314 17.8314L21.0189 14.6533" stroke="#5F6C72" stroke-width="1.5" stroke-linecap="round" stroke-linejoin="round"/>
</svg>
