<svg width="40" height="41" viewBox="0 0 40 41" fill="none" xmlns="http://www.w3.org/2000/svg">
<path d="M35.2344 21.7495H30.2344C29.5713 21.7495 28.9354 22.0129 28.4666 22.4818C27.9978 22.9506 27.7344 23.5865 27.7344 24.2495V30.4995C27.7344 31.1626 27.9978 31.7985 28.4666 32.2673C28.9354 32.7362 29.5713 32.9995 30.2344 32.9995H32.7344C33.3974 32.9995 34.0333 32.7362 34.5021 32.2673C34.971 31.7985 35.2344 31.1626 35.2344 30.4995V21.7495ZM35.2344 21.7495C35.2344 19.7692 34.8424 17.8084 34.0807 15.9803C33.3191 14.1522 32.203 12.493 30.7969 11.0985C29.3907 9.70398 27.7224 8.6017 25.888 7.85527C24.0537 7.10885 22.0897 6.73304 20.1094 6.74954C18.1304 6.73511 16.1681 7.11245 14.3355 7.85981C12.503 8.60716 10.8365 9.70977 9.432 11.1041C8.02751 12.4984 6.91283 14.1569 6.15218 15.9839C5.39153 17.811 4.99995 19.7705 5 21.7495V30.4995C5 31.1626 5.26339 31.7985 5.73223 32.2673C6.20107 32.7362 6.83696 32.9995 7.5 32.9995H10C10.663 32.9995 11.2989 32.7362 11.7678 32.2673C12.2366 31.7985 12.5 31.1626 12.5 30.4995V24.2495C12.5 23.5865 12.2366 22.9506 11.7678 22.4818C11.2989 22.0129 10.663 21.7495 10 21.7495H5" stroke="#191C1F" stroke-width="1.5" stroke-linecap="round" stroke-linejoin="round"/>
</svg>
