<svg width="24" height="24" viewBox="0 0 24 24" fill="none" xmlns="http://www.w3.org/2000/svg">
<path d="M16.5188 9.34668H21.0188V4.84668" stroke="#475156" stroke-width="1.5" stroke-linecap="round" stroke-linejoin="round"/>
<path d="M6.1687 6.16885C6.93407 5.40236 7.84304 4.79429 8.84362 4.37941C9.84421 3.96453 10.9168 3.75098 12 3.75098C13.0831 3.75098 14.1557 3.96453 15.1563 4.37941C16.1569 4.79429 17.0658 5.40236 17.8312 6.16885L21.0187 9.34698" stroke="#475156" stroke-width="1.5" stroke-linecap="round" stroke-linejoin="round"/>
<path d="M7.4812 14.6533H2.9812V19.1533" stroke="#475156" stroke-width="1.5" stroke-linecap="round" stroke-linejoin="round"/>
<path d="M17.8312 17.8314C17.0658 18.5979 16.1569 19.206 15.1563 19.6209C14.1557 20.0358 13.0831 20.2493 12 20.2493C10.9168 20.2493 9.84421 20.0358 8.84362 19.6209C7.84304 19.206 6.93407 18.5979 6.1687 17.8314L2.9812 14.6533" stroke="#475156" stroke-width="1.5" stroke-linecap="round" stroke-linejoin="round"/>
</svg>
