<svg width="40" height="41" viewBox="0 0 40 41" fill="none" xmlns="http://www.w3.org/2000/svg">
<path d="M35 28.2033V12.7971C34.9988 12.5745 34.939 12.3562 34.8265 12.1642C34.714 11.9722 34.5529 11.8132 34.3594 11.7033L20.6094 3.96895C20.4241 3.86198 20.2139 3.80566 20 3.80566C19.7861 3.80566 19.5759 3.86198 19.3906 3.96895L5.64062 11.7033C5.44711 11.8132 5.28599 11.9722 5.17352 12.1642C5.06105 12.3562 5.0012 12.5745 5 12.7971V28.2033C5.0012 28.4259 5.06105 28.6441 5.17352 28.8362C5.28599 29.0282 5.44711 29.1872 5.64062 29.2971L19.3906 37.0314C19.5759 37.1384 19.7861 37.1947 20 37.1947C20.2139 37.1947 20.4241 37.1384 20.6094 37.0314L34.3594 29.2971C34.5529 29.1872 34.714 29.0282 34.8265 28.8362C34.939 28.6441 34.9988 28.4259 35 28.2033V28.2033Z" stroke="#191C1F" stroke-width="1.5" stroke-linecap="round" stroke-linejoin="round"/>
<path d="M27.6562 24.3281V16.2031L12.5 7.84375" stroke="#191C1F" stroke-width="1.5" stroke-linecap="round" stroke-linejoin="round"/>
<path d="M34.8281 12.1562L20.1406 20.5L5.17188 12.1562" stroke="#191C1F" stroke-width="1.5" stroke-linecap="round" stroke-linejoin="round"/>
<path d="M20.1406 20.5L20 37.1875" stroke="#191C1F" stroke-width="1.5" stroke-linecap="round" stroke-linejoin="round"/>
</svg>
