<svg width="16" height="16" viewBox="0 0 16 16" fill="none" xmlns="http://www.w3.org/2000/svg">
<g clip-path="url(#clip0_162_283952)">
<path fill-rule="evenodd" clip-rule="evenodd" d="M8 0C12.4183 0 16 3.58173 16 8C16 12.4183 12.4183 16 8 16C3.58173 16 0 12.4183 0 8C0 3.58173 3.58173 0 8 0Z" fill="white"/>
<path d="M9.04119 15.933V9.75237H10.7847L11.0158 7.5771H9.04119L9.04412 6.48827C9.04412 5.92091 9.09805 5.61705 9.91348 5.61705H11.0035V3.44141H9.25968C7.16499 3.44141 6.42783 4.4966 6.42783 6.27136V7.57726H5.12207V9.75274H6.42783V15.8453C6.93653 15.9466 7.46243 16.0001 8.00089 16.0001C8.34875 16.0001 8.69623 15.9777 9.04119 15.933V15.933Z" fill="#1B6392"/>
</g>
<defs>
<clipPath id="clip0_162_283952">
<rect width="16" height="16" fill="white"/>
</clipPath>
</defs>
</svg>
