<svg width="72" height="73" viewBox="0 0 72 73" fill="none" xmlns="http://www.w3.org/2000/svg">
<path fill-rule="evenodd" clip-rule="evenodd" d="M44.6636 47.4778C40.4953 50.5599 34.4324 52.202 29.2031 52.202C21.8771 52.202 15.3089 49.4989 10.307 45.0021C9.92807 44.6484 10.2565 44.1684 10.7365 44.4463C16.1173 47.5789 22.7613 49.4484 29.6326 49.4484C34.2556 49.4484 39.3585 48.4884 44.0573 46.4926C44.7646 46.2147 45.3457 46.9726 44.6636 47.4778Z" fill="white"/>
<path fill-rule="evenodd" clip-rule="evenodd" d="M46.4064 45.4821C45.8759 44.8001 42.8697 45.1537 41.5308 45.3306C41.1266 45.3811 41.0509 45.0274 41.4298 44.7748C43.8297 43.0822 47.7453 43.5875 48.2 44.1433C48.6547 44.699 48.0737 48.6399 45.8254 50.5093C45.4717 50.7872 45.1433 50.6356 45.2949 50.2567C45.8001 48.9936 46.9369 46.1895 46.4064 45.4821Z" fill="white"/>
<path fill-rule="evenodd" clip-rule="evenodd" d="M41.6066 32.902V31.2599C41.6066 31.0073 41.7835 30.8558 42.0108 30.8558H49.3368C49.5642 30.8558 49.7663 31.0326 49.7663 31.2599V32.6494C49.7663 32.8767 49.5642 33.1799 49.2105 33.6851L45.4212 39.0913C46.8359 39.066 48.3263 39.2681 49.5894 39.9754C49.8673 40.127 49.9431 40.3796 49.9684 40.607V42.3501C49.9684 42.6027 49.7158 42.8806 49.4379 42.729C47.1896 41.5417 44.1834 41.4154 41.7077 42.7543C41.4551 42.8806 41.1772 42.628 41.1772 42.3754V40.7081C41.1772 40.4554 41.1772 40.0007 41.4551 39.5965L45.8507 33.3062H42.0361C41.8087 33.3062 41.6066 33.1294 41.6066 32.902ZM14.9046 43.0827H12.6816C12.4795 43.0574 12.3026 42.9059 12.2774 42.7038V31.2852C12.2774 31.0579 12.4795 30.881 12.7068 30.881H14.7783C15.0057 30.881 15.1572 31.0579 15.1825 31.2599V32.7504H15.233C15.7635 31.3105 16.7993 30.6284 18.1634 30.6284C19.5528 30.6284 20.437 31.3105 21.0433 32.7504C21.5738 31.3105 22.8117 30.6284 24.1253 30.6284C25.06 30.6284 26.0705 31.0073 26.702 31.8915C27.4094 32.8515 27.2578 34.2409 27.2578 35.4788V42.7038C27.2578 42.9311 27.0557 43.108 26.8283 43.108H24.6305C24.4032 43.0827 24.2263 42.9059 24.2263 42.7038V36.6408C24.2263 36.1608 24.2769 34.9482 24.1758 34.4935C23.999 33.7357 23.519 33.5083 22.8622 33.5083C22.3317 33.5083 21.7506 33.862 21.5233 34.443C21.2959 35.024 21.3212 35.984 21.3212 36.6408V42.7038C21.3212 42.9311 21.1191 43.108 20.8917 43.108H18.6687C18.4413 43.0827 18.2645 42.9059 18.2645 42.7038V36.6408C18.2645 35.3777 18.4666 33.483 16.9003 33.483C15.3088 33.483 15.3593 35.3019 15.3593 36.6408V42.7038C15.3341 42.9059 15.1572 43.0827 14.9046 43.0827ZM56.0818 30.6284C59.3911 30.6284 61.1847 33.4578 61.1847 37.0703C61.1847 40.5565 59.2143 43.3353 56.0818 43.3353C52.8483 43.3353 51.0799 40.506 51.0799 36.9692C51.0547 33.4072 52.8483 30.6284 56.0818 30.6284ZM56.0818 32.9778C54.4398 32.9778 54.3387 35.2261 54.3387 36.6156C54.3387 38.005 54.3135 40.9859 56.0565 40.9859C57.7744 40.9859 57.8754 38.586 57.8754 37.1208C57.8754 36.1608 57.8249 34.9988 57.547 34.0893C57.2944 33.2809 56.7891 32.9778 56.0818 32.9778ZM65.454 43.0827H63.231C63.0036 43.0574 62.8268 42.8806 62.8268 42.6785V31.2347C62.852 31.0326 63.0289 30.8558 63.2562 30.8558H65.3277C65.5298 30.8558 65.6814 31.0073 65.7319 31.1842V32.9273H65.7824C66.414 31.361 67.2729 30.6284 68.8139 30.6284C69.7991 30.6284 70.7843 30.9821 71.4159 31.9673C71.9969 32.8767 71.9969 34.4177 71.9969 35.5293V42.729C71.9716 42.9311 71.7948 43.0827 71.5675 43.0827H69.3444C69.1423 43.0574 68.9655 42.9059 68.9402 42.729V36.5145C68.9402 35.2514 69.0918 33.4325 67.5508 33.4325C67.0203 33.4325 66.515 33.7862 66.2624 34.342C65.9593 35.0493 65.9087 35.7314 65.9087 36.5145V42.6785C65.8835 42.9059 65.6814 43.0827 65.454 43.0827ZM35.7711 37.6261C35.7711 38.485 35.7964 39.2176 35.3669 40.0007C35.0132 40.6323 34.4575 41.0112 33.8259 41.0112C32.967 41.0112 32.4618 40.3544 32.4618 39.3944C32.4618 37.4997 34.1543 37.1461 35.7711 37.1461V37.6261ZM38.0194 43.0575C37.8678 43.1838 37.6657 43.209 37.4889 43.108C36.7563 42.5017 36.6047 42.1985 36.2005 41.6175C34.988 42.8553 34.1038 43.2343 32.5375 43.2343C30.6682 43.2343 29.203 42.0722 29.203 39.7733C29.203 37.9545 30.1882 36.7419 31.5776 36.1356C32.7902 35.6051 34.4827 35.504 35.7711 35.3524V35.0746C35.7711 34.5441 35.8216 33.9125 35.4932 33.4578C35.2153 33.0536 34.7101 32.8767 34.2554 32.8767C33.3965 32.8767 32.6386 33.3062 32.4618 34.2156C32.4112 34.4177 32.2849 34.6198 32.0828 34.6198L29.9356 34.3925C29.7587 34.3419 29.5566 34.2156 29.6072 33.9378C30.1124 31.3105 32.4618 30.5273 34.5838 30.5273C35.67 30.5273 37.0847 30.8052 37.9436 31.6389C39.0299 32.6494 38.9289 34.0135 38.9289 35.4788V38.9397C38.9289 39.9754 39.3583 40.4302 39.7625 41.0112C39.9141 41.2133 39.9393 41.4659 39.7625 41.5922C39.2825 41.9712 38.4741 42.6785 38.0194 43.0575ZM6.5934 37.6261C6.5934 38.485 6.61866 39.2176 6.18921 40.0007C5.83554 40.6323 5.27977 41.0112 4.64822 41.0112C3.78931 41.0112 3.28407 40.3544 3.28407 39.3944C3.28407 37.4997 4.97663 37.1461 6.5934 37.1461V37.6261ZM8.81646 43.0575C8.66489 43.1838 8.4628 43.209 8.28596 43.108C7.55336 42.5017 7.40179 42.1985 6.99759 41.6175C5.78501 42.8553 4.90084 43.2343 3.33459 43.2343C1.4652 43.2343 0 42.0722 0 39.7733C0 37.9545 0.985219 36.7419 2.37463 36.1356C3.58721 35.6051 5.27977 35.504 6.56814 35.3524V35.0746C6.56814 34.5441 6.61866 33.9125 6.29025 33.4578C6.01237 33.0536 5.50713 32.8767 5.05241 32.8767C4.1935 32.8767 3.43564 33.3062 3.25881 34.2156C3.20828 34.4177 3.08197 34.6198 2.87987 34.6198L0.732599 34.3925C0.555764 34.3419 0.353671 34.2156 0.404195 33.9378C0.909436 31.3105 3.25881 30.5273 5.38082 30.5273C6.46709 30.5273 7.88177 30.8052 8.74068 31.6389C9.82695 32.6494 9.7259 34.0135 9.7259 35.4788V38.9397C9.7259 39.9754 10.1554 40.4302 10.5595 41.0112C10.7111 41.2133 10.7364 41.4659 10.5595 41.5922C10.0796 41.9712 9.27118 42.6785 8.81646 43.0575Z" fill="white"/>
</svg>
