<svg width="16" height="16" viewBox="0 0 16 16" fill="none" xmlns="http://www.w3.org/2000/svg">
<g clip-path="url(#clip0_162_284327)">
<path d="M5.60038 7.9998C5.60038 6.67437 6.67461 5.59961 8.00009 5.59961C9.32558 5.59961 10.4004 6.67437 10.4004 7.9998C10.4004 9.32524 9.32558 10.4 8.00009 10.4C6.67461 10.4 5.60038 9.32524 5.60038 7.9998V7.9998ZM4.30283 7.9998C4.30283 10.0417 5.95809 11.6969 8.00009 11.6969C10.0421 11.6969 11.6974 10.0417 11.6974 7.9998C11.6974 5.95788 10.0421 4.30269 8.00009 4.30269C5.95809 4.30269 4.30289 5.95777 4.30289 7.9998H4.30283ZM10.9797 4.1561C10.9797 4.32698 11.0303 4.49405 11.1252 4.63617C11.2201 4.77829 11.355 4.88909 11.5128 4.95454C11.6707 5.02 11.8444 5.03718 12.012 5.00391C12.1796 4.97064 12.3336 4.88841 12.4545 4.76763C12.5754 4.64684 12.6577 4.49293 12.6911 4.32534C12.7245 4.15776 12.7075 3.98403 12.6422 3.82613C12.5768 3.66822 12.4661 3.53324 12.3241 3.43825C12.182 3.34325 12.015 3.29251 11.8441 3.29244H11.8438C11.6147 3.29255 11.3951 3.38357 11.2331 3.5455C11.071 3.70743 10.9799 3.92704 10.9797 4.1561V4.1561ZM5.09118 13.8605C4.38918 13.8285 4.00762 13.7116 3.75405 13.6128C3.41789 13.4819 3.17803 13.3261 2.92585 13.0742C2.67367 12.8224 2.51756 12.5828 2.38727 12.2467C2.28842 11.9932 2.17149 11.6116 2.13958 10.9096C2.10467 10.1506 2.0977 9.92266 2.0977 7.99992C2.0977 6.07717 2.10525 5.84983 2.13958 5.09026C2.17155 4.38828 2.28934 4.00738 2.38727 3.75319C2.51814 3.41703 2.67401 3.17719 2.92585 2.92501C3.17769 2.67284 3.41731 2.51675 3.75405 2.38645C4.0075 2.28761 4.38918 2.17068 5.09118 2.13877C5.85014 2.10387 6.07813 2.0969 8.00009 2.0969C9.92205 2.0969 10.1503 2.10433 10.9099 2.13889C11.6119 2.17086 11.9928 2.28865 12.247 2.38657C12.5832 2.51686 12.823 2.6733 13.0752 2.92513C13.3274 3.17696 13.4829 3.41715 13.6138 3.7533C13.7126 4.00674 13.8296 4.3884 13.8615 5.09037C13.8964 5.84994 13.9033 6.07729 13.9033 8.00003C13.9033 9.92278 13.8964 10.1501 13.8615 10.9097C13.8295 11.6117 13.712 11.9932 13.6138 12.2468C13.4829 12.5829 13.327 12.8228 13.0752 13.0744C12.8234 13.326 12.5832 13.4821 12.247 13.6129C11.9935 13.7118 11.6119 13.8287 10.9099 13.8606C10.1509 13.8955 9.92291 13.9025 8.00009 13.9025C6.07727 13.9025 5.84991 13.8955 5.09118 13.8606V13.8605ZM5.03156 0.843408C4.26504 0.878314 3.74127 0.99985 3.28385 1.17783C2.81041 1.36164 2.4091 1.60822 2.00836 2.00831C1.60762 2.4084 1.36166 2.80976 1.17785 3.28375C0.999858 3.74144 0.878317 4.26491 0.84341 5.03139C0.807927 5.79908 0.799805 6.04451 0.799805 7.9998C0.799805 9.95509 0.807927 10.2005 0.84341 10.9682C0.878317 11.7348 0.999858 12.2582 1.17785 12.7159C1.36166 13.1893 1.60768 13.5914 2.00836 13.9913C2.40904 14.3912 2.80984 14.6375 3.28385 14.8218C3.74213 14.9998 4.26504 15.1213 5.03156 15.1562C5.79968 15.1911 6.04472 15.1998 8.00009 15.1998C9.95546 15.1998 10.2009 15.1917 10.9686 15.1562C11.7352 15.1213 12.2586 14.9998 12.7163 14.8218C13.1898 14.6375 13.5911 14.3914 13.9918 13.9913C14.3926 13.5912 14.638 13.1893 14.8223 12.7159C15.0003 12.2582 15.1224 11.7347 15.1568 10.9682C15.1917 10.2 15.1998 9.95509 15.1998 7.9998C15.1998 6.04451 15.1917 5.79908 15.1568 5.03139C15.1219 4.26485 15.0003 3.74115 14.8223 3.28375C14.638 2.81033 14.3919 2.40903 13.9918 2.00831C13.5917 1.60759 13.1898 1.36164 12.7169 1.17783C12.2586 0.99985 11.7351 0.877738 10.9692 0.843408C10.2014 0.80833 9.95604 0.799805 8.00096 0.799805C6.04588 0.799805 5.79997 0.807926 5.03185 0.843408" fill="white"/>
</g>
<defs>
<clipPath id="clip0_162_284327">
<rect width="16" height="16" fill="white"/>
</clipPath>
</defs>
</svg>
