<svg width="72" height="73" viewBox="0 0 72 73" fill="none" xmlns="http://www.w3.org/2000/svg">
<path d="M7.33729 34.781C7.33729 36.4205 6.54292 37.5309 4.53116 37.5309H3.89548V32.3095C4.12147 32.2967 4.33252 32.2967 4.53116 32.2967C6.43604 32.2966 7.33729 33.1952 7.33729 34.781ZM5.27228 39.8043C8.87188 39.8043 11.1478 37.9533 11.1478 34.7287C11.1476 31.1856 8.71283 29.917 4.74293 29.917C3.20762 29.917 1.35492 30.0224 0.0319214 30.181V42.8187H3.89566V39.8043H5.27228ZM57.0403 34.781C57.0403 36.4205 56.247 37.5309 54.2347 37.5309H53.6012V32.3095C53.8252 32.2967 54.0366 32.2967 54.2347 32.2967C56.1398 32.2966 57.0403 33.1952 57.0403 34.781ZM54.9776 39.8043C58.5744 39.8043 60.8515 37.9533 60.8515 34.7287C60.8515 31.1856 58.4171 29.917 54.4469 29.917C52.9119 29.917 51.0581 30.0224 49.735 30.181V42.8187H53.6007V39.8043H54.9776ZM65.8794 33.4062C65.8794 32.7191 66.5683 32.4014 67.6788 32.4014C68.8968 32.4014 70.221 32.666 71.1201 33.0375L70.8029 30.2871C69.7966 30.0756 68.8968 29.917 67.2564 29.917C64.133 29.917 62.0164 31.1468 62.0164 33.7245C62.0164 38.1648 68.0516 37.2667 68.0516 39.3287C68.0516 40.1211 67.4685 40.5438 66.0386 40.5438C64.7701 40.5438 62.8102 40.1211 61.6459 39.5398L62.0705 42.4488C63.2339 42.8717 64.822 43.0825 66.0928 43.0825C69.3207 43.0825 71.9679 42.0247 71.9679 38.8518C71.9679 34.6233 65.8794 35.4157 65.8794 33.4062ZM46.8248 30.181H42.9611V42.8187H46.8248V30.181ZM31.1563 30.181H27.2922V42.8187H31.1563V30.181ZM37.8787 40.2799V30.181H34.0146V42.8187H41.0024L41.5841 40.2799H37.8787ZM24.4341 30.181H20.57V35.2041H16.547V30.181H12.6822V42.8187H16.5468V37.8478H20.5698V42.8187H24.4339L24.4341 30.181Z" fill="white"/>
</svg>
