<svg width="24" height="25" viewBox="0 0 24 25" fill="none" xmlns="http://www.w3.org/2000/svg">
<path d="M12 21.5C16.9706 21.5 21 17.4706 21 12.5C21 7.52944 16.9706 3.5 12 3.5C7.02944 3.5 3 7.52944 3 12.5C3 17.4706 7.02944 21.5 12 21.5Z" stroke="#FA8232" stroke-width="1.5" stroke-linecap="round" stroke-linejoin="round"/>
<path d="M12 15.5C14.0711 15.5 15.75 13.8211 15.75 11.75C15.75 9.67893 14.0711 8 12 8C9.92893 8 8.25 9.67893 8.25 11.75C8.25 13.8211 9.92893 15.5 12 15.5Z" stroke="#FA8232" stroke-width="1.5" stroke-linecap="round" stroke-linejoin="round"/>
<path d="M5.98125 19.1933C6.54554 18.0819 7.40659 17.1484 8.46895 16.4963C9.53131 15.8442 10.7535 15.499 12 15.499C13.2465 15.499 14.4687 15.8442 15.5311 16.4963C16.5934 17.1484 17.4545 18.0819 18.0188 19.1933" stroke="#FA8232" stroke-width="1.5" stroke-linecap="round" stroke-linejoin="round"/>
</svg>
