<svg width="20" height="21" viewBox="0 0 20 21" fill="none" xmlns="http://www.w3.org/2000/svg">
<path d="M10.3438 15.3985L14.2812 17.8985C14.7891 18.2188 15.4141 17.7422 15.2656 17.1563L14.125 12.6719C14.0942 12.5476 14.0991 12.4171 14.1391 12.2955C14.1792 12.1738 14.2529 12.066 14.3516 11.9844L17.8828 9.03908C18.3438 8.65627 18.1094 7.88283 17.5078 7.84377L12.8984 7.54689C12.7727 7.53958 12.6518 7.49578 12.5505 7.42086C12.4492 7.34594 12.3719 7.24314 12.3281 7.12502L10.6094 2.79689C10.5639 2.67182 10.481 2.56377 10.372 2.48742C10.263 2.41107 10.1331 2.37012 10 2.37012C9.86691 2.37012 9.73704 2.41107 9.62802 2.48742C9.519 2.56377 9.43612 2.67182 9.39062 2.79689L7.67188 7.12502C7.62807 7.24314 7.55081 7.34594 7.44952 7.42086C7.34824 7.49578 7.22733 7.53958 7.10156 7.54689L2.49219 7.84377C1.89063 7.88283 1.65625 8.65627 2.11719 9.03908L5.64844 11.9844C5.74714 12.066 5.82077 12.1738 5.86085 12.2955C5.90094 12.4171 5.90584 12.5476 5.875 12.6719L4.82031 16.8281C4.64063 17.5313 5.39063 18.1016 5.99219 17.7188L9.65625 15.3985C9.759 15.3331 9.87824 15.2984 10 15.2984C10.1218 15.2984 10.241 15.3331 10.3438 15.3985Z" fill="#EBC80C"/>
</svg>
