<svg width="16" height="17" viewBox="0 0 16 17" fill="none" xmlns="http://www.w3.org/2000/svg">
<path d="M8.27549 12.4188L11.4255 14.4188C11.8317 14.675 12.3317 14.2938 12.213 13.825L11.3005 10.2375C11.2758 10.1381 11.2797 10.0337 11.3118 9.93638C11.3439 9.83907 11.4028 9.7528 11.4817 9.68752L14.3067 7.33127C14.6755 7.02502 14.488 6.40627 14.0067 6.37502L10.3192 6.13752C10.2186 6.13166 10.1219 6.09663 10.0409 6.03669C9.95984 5.97675 9.89803 5.89451 9.86299 5.80002L8.48799 2.33752C8.45159 2.23745 8.38528 2.15102 8.29807 2.08994C8.21086 2.02886 8.10696 1.99609 8.00049 1.99609C7.89401 1.99609 7.79012 2.02886 7.7029 2.08994C7.61569 2.15102 7.54938 2.23745 7.51299 2.33752L6.13799 5.80002C6.10294 5.89451 6.04113 5.97675 5.96011 6.03669C5.87908 6.09663 5.78235 6.13166 5.68174 6.13752L1.99424 6.37502C1.51299 6.40627 1.32549 7.02502 1.69424 7.33127L4.51924 9.68752C4.5982 9.7528 4.6571 9.83907 4.68917 9.93638C4.72124 10.0337 4.72516 10.1381 4.70049 10.2375L3.85674 13.5625C3.71299 14.125 4.31299 14.5813 4.79424 14.275L7.72549 12.4188C7.80768 12.3665 7.90308 12.3387 8.00049 12.3387C8.0979 12.3387 8.19329 12.3665 8.27549 12.4188V12.4188Z" fill="#FA8232"/>
</svg>
