<svg width="24" height="25" viewBox="0 0 24 25" fill="none" xmlns="http://www.w3.org/2000/svg">
<path d="M4.25624 17.0933C3.13958 15.2093 2.74898 12.9825 3.15778 10.831C3.56658 8.6794 4.74667 6.75104 6.47651 5.40789C8.20634 4.06474 10.367 3.39919 12.5527 3.53617C14.7385 3.67315 16.7991 4.60325 18.3477 6.15186C19.8963 7.70047 20.8264 9.76108 20.9634 11.9469C21.1004 14.1326 20.4348 16.2932 19.0917 18.0231C17.7485 19.7529 15.8202 20.933 13.6686 21.3418C11.517 21.7506 9.29023 21.36 7.40624 20.2433L4.29374 21.1246C4.16622 21.1619 4.03102 21.1642 3.9023 21.1313C3.77358 21.0983 3.65609 21.0314 3.56214 20.9374C3.46819 20.8435 3.40124 20.726 3.36832 20.5973C3.33539 20.4686 3.3377 20.3334 3.37499 20.2058L4.25624 17.0933Z" stroke="#FA8232" stroke-width="1.5" stroke-linecap="round" stroke-linejoin="round"/>
<path d="M12 13.625C12.6213 13.625 13.125 13.1213 13.125 12.5C13.125 11.8787 12.6213 11.375 12 11.375C11.3787 11.375 10.875 11.8787 10.875 12.5C10.875 13.1213 11.3787 13.625 12 13.625Z" fill="#FA8232"/>
<path d="M7.5 13.625C8.12132 13.625 8.625 13.1213 8.625 12.5C8.625 11.8787 8.12132 11.375 7.5 11.375C6.87868 11.375 6.375 11.8787 6.375 12.5C6.375 13.1213 6.87868 13.625 7.5 13.625Z" fill="#FA8232"/>
<path d="M16.5 13.625C17.1213 13.625 17.625 13.1213 17.625 12.5C17.625 11.8787 17.1213 11.375 16.5 11.375C15.8787 11.375 15.375 11.8787 15.375 12.5C15.375 13.1213 15.8787 13.625 16.5 13.625Z" fill="#FA8232"/>
</svg>
