<svg width="21" height="21" viewBox="0 0 21 21" fill="none" xmlns="http://www.w3.org/2000/svg">
<path d="M7.75 17.375C7.75 17.6511 7.52614 17.875 7.25 17.875C6.97386 17.875 6.75 17.6511 6.75 17.375C6.75 17.0989 6.97386 16.875 7.25 16.875C7.52614 16.875 7.75 17.0989 7.75 17.375Z" fill="white" stroke="white" stroke-width="1.5"/>
<path d="M15.375 18.625C16.0654 18.625 16.625 18.0654 16.625 17.375C16.625 16.6846 16.0654 16.125 15.375 16.125C14.6846 16.125 14.125 16.6846 14.125 17.375C14.125 18.0654 14.6846 18.625 15.375 18.625Z" fill="white"/>
<path d="M4.30469 6.125H18.3203L16.2578 13.3438C16.1842 13.6057 16.0266 13.8363 15.8093 14C15.5919 14.1638 15.3268 14.2516 15.0547 14.25H7.57031C7.29819 14.2516 7.03308 14.1638 6.81572 14C6.59836 13.8363 6.44078 13.6057 6.36719 13.3438L3.53906 3.45313C3.50169 3.32246 3.42275 3.20754 3.3142 3.12578C3.20565 3.04401 3.0734 2.99986 2.9375 3H1.625" stroke="white" stroke-width="1.5" stroke-linecap="round" stroke-linejoin="round"/>
</svg>
