<svg width="24" height="25" viewBox="0 0 24 25" fill="none" xmlns="http://www.w3.org/2000/svg">
<path d="M8.25 20.75C8.25 21.1642 7.91421 21.5 7.5 21.5C7.08579 21.5 6.75 21.1642 6.75 20.75C6.75 20.3358 7.08579 20 7.5 20C7.91421 20 8.25 20.3358 8.25 20.75Z" fill="#191C1F" stroke="#191C1F" stroke-width="1.5"/>
<path d="M17.25 22.25C18.0784 22.25 18.75 21.5784 18.75 20.75C18.75 19.9216 18.0784 19.25 17.25 19.25C16.4216 19.25 15.75 19.9216 15.75 20.75C15.75 21.5784 16.4216 22.25 17.25 22.25Z" fill="#191C1F"/>
<path d="M3.96562 7.25H20.7844L18.3094 15.9125C18.2211 16.2269 18.032 16.5036 17.7711 16.7C17.5103 16.8965 17.1922 17.0019 16.8656 17H7.88437C7.55783 17.0019 7.2397 16.8965 6.97886 16.7C6.71803 16.5036 6.52893 16.2269 6.44062 15.9125L3.04688 4.04375C3.00203 3.88696 2.9073 3.74905 2.77704 3.65093C2.64677 3.55282 2.48808 3.49983 2.325 3.5H0.75" stroke="#191C1F" stroke-width="1.5" stroke-linecap="round" stroke-linejoin="round"/>
</svg>
