<svg width="72" height="73" viewBox="0 0 72 73" fill="none" xmlns="http://www.w3.org/2000/svg">
<path fill-rule="evenodd" clip-rule="evenodd" d="M6.44413 41.7448H3.66657V33.783H0.45459V31.3931H9.82719V33.783H6.44413V41.7448ZM11.1413 34.1247C11.5604 31.6882 13.7328 31.3311 15.8126 31.3311C19.3821 31.3311 20.639 32.2156 20.639 35.9558C20.639 39.789 20.546 41.8221 15.8903 41.8221C14.0436 41.8221 11.8398 41.6827 11.219 39.5566C11.0173 38.8581 11.0016 38.129 11.0016 37.3995V36.6386C11.0016 35.8161 11.0016 34.9473 11.1413 34.1247ZM13.8415 37.2127C13.8415 38.6717 13.8725 39.4475 15.5952 39.4475C17.4886 39.4475 17.7834 38.9818 17.7834 37.2127C17.7834 36.7163 17.7991 36.2042 17.7991 35.7074C17.7991 34.3261 17.5817 33.7056 16.092 33.7056C13.9196 33.7056 13.8882 33.923 13.8419 36.5919V37.2127H13.8415ZM28.7539 34.6212C28.7539 33.5656 28.3811 33.4262 27.3883 33.4262H27.1089C26.3794 33.4262 25.6036 33.4572 25.6036 34.3728C25.6036 35.0093 25.79 35.304 26.4571 35.3507C28.8622 35.5524 31.7026 35.0713 31.7026 38.408C31.7026 39.2929 31.7026 40.4101 30.9731 41.0309C30.1192 41.7448 28.9399 41.8068 27.8537 41.8068H27.1709C24.3153 41.8068 22.8253 41.6827 22.8253 38.3923H25.4635C25.4635 39.1681 25.6499 39.6339 26.5187 39.6339H27.7136C28.4121 39.6339 28.9706 39.5406 28.9706 38.6093C28.9706 37.6938 28.4275 37.6938 27.6513 37.6475C24.6563 37.4458 22.8406 37.7248 22.8406 34.2798C22.8406 32.4793 23.5544 31.5328 25.4011 31.3931C26.0062 31.3464 26.6114 31.3154 27.2168 31.3154C29.6224 31.3154 31.4071 31.3621 31.4071 34.2954C31.4071 34.4041 31.3914 34.5128 31.3914 34.6215H28.7539V34.6212ZM43.0261 41.7448H40.2478V37.6785H36.6473V41.7448H33.8694V31.3931H36.6473V35.304H40.2478V31.3931H43.0261V41.7448ZM48.4501 41.7448H45.6726V31.3931H48.4501V41.7448ZM51.1145 31.3931H56.7481C58.6258 31.3931 59.8364 31.9052 59.8364 34.0314C59.8364 35.2263 59.7277 36.1885 58.2228 36.4369V36.5295C59.6198 36.6539 60.0071 37.3987 60.0071 38.7644C60.0071 41.0922 59.2317 41.7444 56.7948 41.7444H51.1145V31.3931ZM55.6619 35.5367C56.4227 35.5057 57.0895 35.5991 57.0895 34.6522C57.0895 33.9074 56.8881 33.6743 56.1433 33.6743H53.8928V35.5367H55.6619ZM55.7399 39.4632C56.6088 39.4632 57.2449 39.4475 57.2449 38.439C57.2449 37.4768 56.7948 37.4458 55.9259 37.4458H53.8928V39.4632H55.7399ZM68.571 41.7448H71.3957L68.2446 31.3931H64.0394L60.935 41.7448H63.822L64.4136 39.6653H67.9708L68.571 41.7448ZM64.984 37.6632L66.1812 33.4572L67.3944 37.6632H64.984Z" fill="white"/>
</svg>
