<svg width="16" height="16" viewBox="0 0 16 16" fill="none" xmlns="http://www.w3.org/2000/svg">
<path d="M8.3538 13.5026L5.07647 13.4427C4.01534 13.4218 2.95158 13.4635 1.91126 13.2472C0.328691 12.924 0.216577 11.3393 0.0992606 10.0101C-0.0623891 8.14132 0.000190341 6.23865 0.305244 4.3855C0.477457 3.34568 1.15518 2.72522 2.20327 2.6577C5.74131 2.41267 9.30289 2.44171 12.8331 2.55602C13.2059 2.5665 13.5813 2.62378 13.949 2.68898C15.7637 3.00697 15.8079 4.80277 15.9256 6.31449C16.0429 7.84181 15.9933 9.37697 15.7691 10.8939C15.5892 12.1499 15.245 13.2031 13.7925 13.3048C11.9726 13.4378 10.1944 13.5448 8.3694 13.5107C8.36948 13.5026 8.359 13.5026 8.3538 13.5026ZM6.42704 10.3229C7.79851 9.53569 9.1438 8.76163 10.5074 7.97973C9.1334 7.19255 7.79066 6.41849 6.42704 5.63659V10.3229Z" fill="white"/>
</svg>
